<?xml version="1.0" standalone="no"?><!DOCTYPE svg PUBLIC "-//W3C//DTD SVG 1.1//EN" "http://www.w3.org/Graphics/SVG/1.1/DTD/svg11.dtd"><svg t="1705387867751" class="icon" viewBox="0 0 1024 1024" version="1.1" xmlns="http://www.w3.org/2000/svg" p-id="11756" xmlns:xlink="http://www.w3.org/1999/xlink" width="200" height="200"><path d="M772.486465 494.624323l48.191353-48.191353c26.343434-26.348606 26.343434-69.908687 0-96.252122L682.98602 212.489051c-26.348606-26.348606-69.903515-26.348606-96.252121 0l-48.192646 48.191353L772.486465 494.624323zM573.627475 347.266586L746.537374 520.175192 508.355232 758.357333c-56.535919 12.176808-68.712727-15.490586-61.167192-61.167192-57.328485-7.943758-100.090828-33.499798-110.151111-98.766868l160.726627-155.697132-14.696728-14.696727-164.702384 159.934061c-41.438384 3.307313-50.176-23.434343-43.954424-63.68194L512.592162 286.099394l61.035313 61.167192zM233.764202 668.326788l-28.858182 126.439434 46.863515 46.868687 126.439435-28.863353L233.764202 668.326788z m0 0" fill="#399CFF" p-id="11757"></path></svg>